<?xml version="1.0" standalone="no"?>
<!DOCTYPE svg PUBLIC "-//W3C//DTD SVG 20010904//EN"
 "http://www.w3.org/TR/2001/REC-SVG-20010904/DTD/svg10.dtd">
<svg version="1.0" xmlns="http://www.w3.org/2000/svg"
 width="786.000000pt" height="496.000000pt" viewBox="0 0 786.000000 496.000000"
 preserveAspectRatio="xMidYMid meet">
<g transform="translate(0.000000,496.000000) scale(0.100000,-0.100000)"
fill="#000000" stroke="none">
<path d="M3808 4920 c-105 -32 -234 -187 -226 -273 3 -30 6 -32 47 -35 40 -3
46 0 80 38 92 106 117 128 159 140 34 11 50 11 84 0 42 -12 67 -34 159 -140
34 -38 40 -41 80 -38 42 3 44 4 47 38 2 26 -7 51 -33 95 -49 82 -89 120 -159
155 -51 26 -70 30 -135 29 -42 0 -88 -4 -103 -9z"/>
<path d="M3352 4398 c-28 -180 -28 -237 -2 -270 36 -47 188 -94 330 -104 102
-7 145 -19 183 -50 49 -41 77 -42 107 -5 31 36 73 51 147 51 123 0 286 51 346
107 35 34 35 76 5 271 l-22 142 -536 0 -536 0 -22 -142z m987 -82 c-5 -99 -17
-119 -90 -141 -86 -25 -246 -38 -394 -32 -153 7 -316 29 -360 49 l-28 12 6 88
c3 48 8 92 12 98 4 6 156 10 432 10 l425 0 -3 -84z"/>
<path d="M1350 4025 l0 -85 795 0 795 0 0 85 0 85 -795 0 -795 0 0 -85z"/>
<path d="M4880 4025 l0 -85 795 0 795 0 0 85 0 85 -795 0 -795 0 0 -85z"/>
<path d="M4433 4010 c-21 -12 -33 -28 -34 -42 -2 -41 2 -92 11 -130 l8 -38
-504 0 -504 0 6 98 7 99 -46 11 c-61 16 -64 15 -78 -9 -17 -33 -58 -302 -48
-320 6 -13 28 -17 92 -21 69 -3 87 -8 105 -26 28 -28 102 -31 128 -5 23 24
111 32 334 32 223 0 311 -8 334 -32 26 -26 100 -23 128 5 18 18 36 23 105 26
51 3 87 9 94 18 8 9 6 34 -5 91 -8 43 -18 101 -22 128 -7 57 -29 116 -47 127
-18 12 -29 10 -64 -12z"/>
<path d="M70 3715 l0 -85 1435 0 1435 0 0 85 0 85 -1435 0 -1435 0 0 -85z"/>
<path d="M4880 3715 l0 -85 1435 0 1435 0 0 85 0 85 -1435 0 -1435 0 0 -85z"/>
<path d="M2666 2651 c-36 -24 -66 -69 -66 -99 0 -32 61 -92 92 -92 74 0 116
152 54 195 -27 20 -45 19 -80 -4z"/>
<path d="M1205 2621 c-3 -6 9 -26 26 -45 55 -63 70 -134 133 -614 19 -145 37
-267 40 -270 19 -19 76 72 226 360 56 109 106 196 110 193 11 -7 35 -113 70
-310 36 -196 46 -235 65 -235 27 0 69 72 285 480 169 318 211 379 277 401 53
17 41 35 -28 43 -90 9 -237 7 -243 -3 -3 -5 10 -23 30 -41 32 -28 35 -35 30
-65 -9 -45 -189 -406 -215 -429 -19 -18 -20 -17 -30 21 -20 80 -91 471 -91
506 0 4 -9 7 -19 7 -24 0 -51 -43 -188 -299 -57 -106 -110 -202 -117 -213 -12
-17 -14 -17 -20 -2 -15 39 -58 428 -49 443 5 8 25 20 44 26 41 14 50 40 17 49
-37 10 -346 7 -353 -3z"/>
<path d="M2600 2319 c-85 -38 -199 -176 -127 -153 12 4 31 13 42 20 11 8 26
14 34 14 17 0 11 -73 -19 -230 -12 -58 -21 -132 -22 -164 -1 -55 2 -62 31 -88
17 -15 42 -28 55 -28 29 0 126 70 179 128 58 66 46 97 -19 47 -41 -31 -64 -32
-64 -2 0 12 9 90 20 172 27 205 27 269 -2 289 -30 21 -54 20 -108 -5z"/>
<path d="M3085 2306 c-53 -36 -155 -138 -155 -155 0 -19 32 -12 66 14 18 14
38 25 45 25 16 0 7 -128 -23 -290 -12 -69 -22 -143 -22 -165 l-1 -40 52 -3
c86 -5 88 -3 143 173 27 83 99 239 130 278 54 68 64 7 30 -179 -11 -60 -20
-135 -20 -166 0 -49 3 -59 26 -77 57 -45 143 -14 232 82 64 70 52 119 -16 62
-40 -34 -62 -33 -62 3 0 15 9 90 20 167 26 182 26 225 -1 259 -53 67 -102 53
-214 -60 -75 -77 -77 -78 -71 -45 13 72 -33 151 -88 151 -12 0 -44 -15 -71
-34z"/>
<path d="M3997 2330 c-53 -14 -87 -33 -124 -72 -86 -90 -69 -178 67 -333 39
-44 73 -88 76 -98 7 -21 -30 -67 -54 -67 -7 0 -39 23 -70 51 -84 75 -87 76
-122 37 -17 -18 -30 -42 -30 -54 0 -45 97 -104 171 -104 88 0 195 67 230 145
37 81 20 131 -86 244 -75 81 -115 133 -115 149 0 17 30 42 49 42 10 0 45 -18
77 -40 85 -57 154 -54 154 8 0 33 -16 60 -48 76 -36 19 -128 27 -175 16z"/>
<path d="M4654 2331 c-48 -12 -129 -60 -167 -100 -91 -93 -153 -247 -144 -357
6 -81 35 -122 112 -160 45 -22 64 -25 100 -21 171 24 355 254 355 442 -1 84
-66 169 -149 194 -42 12 -61 13 -107 2z m52 -106 c39 -128 -11 -350 -99 -442
-34 -36 -46 -33 -73 18 -19 37 -18 159 1 234 34 132 102 241 144 233 8 -2 21
-21 27 -43z"/>
<path d="M5185 2306 c-53 -36 -155 -138 -155 -155 0 -19 30 -12 66 15 19 15
41 24 49 20 18 -7 17 -26 -22 -274 -30 -191 -27 -206 36 -217 76 -13 78 -10
125 147 50 167 173 374 192 324 6 -16 2 -43 -47 -317 -12 -70 -19 -134 -16
-143 5 -11 19 -16 51 -16 82 0 91 9 121 107 35 120 64 199 92 255 23 47 85
118 103 118 15 0 12 -45 -10 -170 -38 -208 -26 -310 36 -310 69 0 234 129 234
183 0 35 -8 34 -61 -7 -23 -19 -47 -32 -52 -29 -11 7 -4 98 17 208 33 174 14
277 -52 283 -40 4 -78 -19 -168 -102 l-61 -55 -7 58 c-8 68 -33 99 -90 108
-35 5 -39 2 -131 -88 l-95 -93 0 53 c0 79 -34 131 -87 131 -10 0 -41 -15 -68
-34z"/>
<path d="M6494 2331 c-51 -13 -131 -62 -180 -109 -81 -81 -122 -191 -127 -343
-2 -100 10 -127 75 -160 80 -41 188 -5 294 98 76 73 54 94 -43 43 -95 -51
-149 -35 -160 48 -6 46 2 53 90 79 106 31 219 128 230 199 8 46 -12 102 -43
125 -30 22 -93 31 -136 20z m20 -76 c18 -49 -107 -248 -138 -218 -15 15 -4 83
23 139 40 86 97 125 115 79z"/>
<path d="M70 900 l0 -80 3840 0 3840 0 0 80 0 80 -3840 0 -3840 0 0 -80z"/>
<path d="M2630 590 l0 -80 1280 0 1280 0 0 80 0 80 -1280 0 -1280 0 0 -80z"/>
<path d="M3830 321 c-47 -25 -83 -93 -77 -144 10 -76 89 -147 165 -147 38 0
48 6 92 49 33 33 51 60 55 84 23 122 -121 219 -235 158z"/>
</g>
</svg>
